<svg height="512pt" viewBox="0 -35 512 512" width="512pt" xmlns="http://www.w3.org/2000/svg"><path d="m35.308594 88.277344h441.382812c19.5 0 35.308594 15.808594 35.308594 35.308594v282.484374c0 19.5-15.808594 35.308594-35.308594 35.308594h-441.382812c-19.5 0-35.308594-15.808594-35.308594-35.308594v-282.484374c0-19.5 15.808594-35.308594 35.308594-35.308594zm0 0" fill="#556080"/><path d="m379.585938 88.277344h-247.171876l30.429688-78.515625c2.992188-5.984375 9.105469-9.761719 15.792969-9.761719h154.726562c6.6875 0 12.800781 3.777344 15.792969 9.761719zm0 0" fill="#2c3e50"/><path d="m388.414062 264.828125c0 73.128906-59.285156 132.414063-132.414062 132.414063s-132.414062-59.285157-132.414062-132.414063 59.285156-132.414063 132.414062-132.414063 132.414062 59.285157 132.414062 132.414063zm0 0" fill="#2c3e50"/><path d="m353.101562 264.828125c0 53.628906-43.472656 97.101563-97.101562 97.101563s-97.101562-43.472657-97.101562-97.101563 43.472656-97.105469 97.101562-97.105469 97.101562 43.476563 97.101562 97.105469zm0 0" fill="#90bae1"/><path d="m353.101562 264.828125c0 53.628906-43.472656 97.101563-97.101562 97.101563s-97.101562-43.472657-97.101562-97.101563 43.472656-97.105469 97.101562-97.105469 97.101562 43.476563 97.101562 97.105469zm0 0" fill="#b0d3f0"/><path d="m35.308594 141.242188c-4.875 0-8.824219-3.953126-8.824219-8.828126v-8.828124c0-4.875 3.949219-8.828126 8.824219-8.828126 4.878906 0 8.828125 3.953126 8.828125 8.828126v8.828124c0 4.875-3.949219 8.828126-8.828125 8.828126zm0 0" fill="#8697cb"/><path d="m35.308594 414.898438c-4.875 0-8.824219-3.953126-8.824219-8.828126v-238.347656c0-4.875 3.949219-8.824218 8.824219-8.824218 4.878906 0 8.828125 3.949218 8.828125 8.824218v238.347656c0 4.875-3.949219 8.828126-8.828125 8.828126zm0 0" fill="#8697cb"/><path d="m334.300781 207.359375c-6.429687-.960937-12.921875-1.433594-19.421875-1.410156-68.738281.0625-126.53125 51.59375-134.441406 119.878906-22.117188-27.417969-27.652344-64.652344-14.472656-97.316406 13.175781-32.664063 43.007812-55.632813 77.953125-60.023438 34.949219-4.390625 69.53125 10.484375 90.382812 38.871094zm0 0" fill="#90bae1"/></svg>