<?xml version="1.0" standalone="no"?>
<svg xmlns="http://www.w3.org/2000/svg"
	xmlns:xlink="http://www.w3.org/1999/xlink"
	viewBox="1746 6469 5001 4978">
<g style="stroke-width:.025in; fill:none">
<!-- Line -->
<!--  polyline  -->
<polyline points="6613,8946
6585,8834
6495,8730
6348,8640
6155,8574
5914,8536
5640,8531
5333,8564
5011,8635
4686,8744
4360,8890
4048,9065
3760,9268
3500,9490
3282,9727
3103,9963
2971,10194
2890,10412
2853,10605
2862,10761
2919,10879
3004,10950
3127,10969
3268,10936
3424,10846
3585,10700
3745,10501
3892,10256
4024,9972
4128,9656
4208,9316
4251,8961
4260,8602
4232,8253
4175,7922
4090,7620
3977,7355
3849,7133
3712,6963
3566,6845
3434,6788
3311,6783
3207,6840
3135,6944
3103,7095
3108,7289
3155,7516
3249,7761
3386,8020
3571,8286
3793,8541
4048,8787
4331,9004
4629,9198
4941,9353
5248,9472
5545,9547
5819,9585
6065,9585
6272,9552
6434,9486
6537,9396
6588,9287
6580,9174
6509,9056
6382,8946
6202,8853
5975,8782
5701,8734
5399,8720
5072,8744
4733,8805
4393,8900
4057,9027
3741,9183
3453,9367
3197,9566
2985,9779
2819,9986
2701,10190
2635,10379
2621,10539
2654,10667
2730,10752
2843,10790
2985,10780
3150,10714
3334,10601
3519,10431
3698,10213
3868,9949
4019,9651
4146,9330
4241,8985
4303,8630
4331,8281
4322,7946
4284,7629
4213,7350
4119,7109
4005,6916
3882,6779
3755,6698
3632,6675
3523,6708
3438,6798
3377,6944
3353,7128
3367,7355
3419,7610
3519,7889
3660,8172
3840,8461
4057,8739
4303,8999
4572,9231
4856,9434
5144,9594
5427,9717
5697,9798
5942,9835
6155,9830
6325,9793
6448,9717
6514,9623
6523,9509
6476,9382
6372,9259
6211,9135
5998,9032
5739,8946
5441,8890
5114,8862
4775,8872
4420,8914
4071,8990
3736,9103
3419,9240
3135,9401
2895,9575
2697,9764
2550,9949
2456,10123
2413,10284
2423,10416
2483,10511
2588,10572
2730,10582
2900,10549
3093,10459
3301,10322
3514,10138
3717,9906
3911,9632
4086,9330
4227,9004
4341,8668
4420,8323
4464,7988
4468,7672
4440,7379
4383,7123
4298,6916
4199,6755
4086,6656
3967,6609
3854,6623
3755,6698
3675,6826
3623,7005
3598,7227
3618,7487
3670,7776
3769,8078
3901,8385
4076,8692
4279,8985
4511,9254
4761,9500
5026,9703
5290,9868
5545,9986
5786,10062
5994,10090
6174,10076
6306,10024
6391,9944
6424,9830
6396,9703
6314,9561
6174,9420
5985,9287
5744,9164
5460,9065
5144,8990
4804,8946
4449,8938
4095,8961
3741,9023
3409,9112
3108,9231
2838,9367
2612,9523
2437,9683
2314,9849
2248,10001
2234,10133
2276,10242
2366,10317
2503,10350
2672,10345
2876,10289
3103,10185
3334,10034
3571,9835
3802,9598
4015,9325
4208,9023
4369,8706
4501,8375
4591,8049
4643,7733
4662,7440
4643,7180
4591,6958
4515,6783
4416,6661
4308,6594
4194,6590
4086,6646
3986,6755
3906,6925
3849,7138
3830,7393
3840,7681
3892,7993
3977,8319
4104,8645
4260,8966
4449,9268
4667,9547
4893,9788
5134,9991
5371,10152
5597,10260
5805,10322
5985,10335
6125,10308
6226,10242
6272,10138
6272,10005
6211,9859
6098,9698
5933,9538
5715,9382
5451,9245
5153,9122
4823,9032
4473,8971
4119,8942
3760,8946
3419,8990
3098,9060
2810,9160
2564,9278
2361,9415
2215,9556
2120,9698
2087,9826
2111,9944
2186,10034
2309,10090
2479,10109
2687,10086
2919,10015
3174,9901
3434,9745
3698,9542
3949,9306
4180,9037
4388,8744
4567,8441
4704,8130
4808,7823
4865,7535
4889,7270
4870,7038
4823,6850
4742,6712
4648,6632
4534,6604
4416,6642
4303,6731
4199,6883
4114,7086
4052,7331
4024,7615
4024,7931
4067,8262
4138,8607
4251,8942
4393,9273
4563,9580
4756,9854
4960,10090
5172,10284
5385,10431
5583,10525
5758,10567
5904,10563
6018,10511
6083,10420
6103,10293
6070,10138
5985,9968
5843,9783
5654,9598
5418,9420
5139,9259
4827,9117
4492,9009
4142,8928
3793,8881
3448,8867
3117,8890
2815,8946
2550,9027
2328,9131
2158,9254
2045,9377
1988,9505
1988,9623
2045,9722
2158,9798
2323,9845
2527,9854
2763,9821
3032,9745
3311,9632
3598,9472
3882,9273
4152,9046
4402,8787
4619,8508
4804,8220
4950,7931
5054,7653
5114,7393
5134,7161
5114,6963
5059,6816
4978,6712
4870,6670
4752,6684
4624,6755
4501,6883
4388,7067
4289,7303
4218,7577
4175,7884
4161,8220
4185,8569
4246,8919
4335,9264
4459,9594
4609,9897
4780,10161
4964,10388
5149,10563
5333,10690
5503,10761
5654,10780
5772,10747
5851,10671
5895,10549
5886,10393
5829,10213
5720,10015
5560,9802
5352,9594
5106,9396
4818,9212
4506,9051
4171,8919
3830,8820
3490,8758
3160,8734
2848,8744
2574,8787
2338,8853
2149,8946
2012,9056
1931,9174
1912,9287
1955,9396
2049,9490
2201,9556
2398,9598
2640,9604
2909,9571
3202,9495
3509,9382
3816,9231
4119,9042
4402,8824
4662,8583
4889,8328
5072,8059
5219,7799
5319,7549
5375,7317
5385,7119
5356,6958
5290,6845
5196,6783
5072,6774
4941,6826
4798,6930
4662,7095
4530,7308
4416,7568
4331,7865
4270,8191
4241,8536
4246,8895
4289,9249
4360,9594
4464,9916
4596,10204
4742,10454
4903,10662
5063,10813
5224,10912
5371,10960
5493,10950
5588,10883
5649,10775
5662,10624
5635,10435
5560,10227
5437,9996
5267,9760
5049,9528
4794,9301
4511,9098
4199,8919
3872,8772
3547,8659
3220,8583
2914,8550
2630,8550
2385,8583
2182,8645
2026,8730
1931,8834
1889,8946
1908,9060
1988,9164
2125,9259
2309,9325
2545,9367
2815,9377
3112,9349
3434,9283
3760,9174
4086,9037
4397,8862
4690,8659
4950,8437
5177,8201
5361,7964
5498,7728
5588,7506
5630,7312
5626,7147
5583,7020
5498,6939
5380,6911
5243,6939
5092,7020
4931,7156
4771,7346
4619,7587
4492,7865
4383,8177
4303,8517
4256,8867
4246,9226
4265,9580
4322,9911
4407,10223
4515,10492
4643,10723
4785,10903
4925,11026
5063,11092
5191,11106
5295,11059
5371,10964
5413,10818
5413,10634
5371,10416
5286,10171
5149,9916
4974,9651
4756,9396
4506,9150
4223,8928
3925,8734
3613,8574
3306,8451
3004,8366
2725,8323
2470,8319
2257,8352
2092,8413
1974,8503
1917,8607
1917,8720
1974,8838
2092,8946
2262,9042
2483,9117
2749,9164
3046,9183
3367,9164
3708,9108
4048,9018
4383,8895
4704,8739
4997,8555
5257,8356
5475,8144
5649,7931
5772,7723
5843,7535
5867,7369
5843,7237
5772,7142
5668,7095
5526,7095
5366,7152
5186,7261
5002,7426
4823,7634
4651,7889
4501,8182
4374,8503
4275,8848
4208,9198
4180,9552
4185,9892
4223,10209
4289,10497
4383,10742
4492,10945
4619,11092
4747,11182
4870,11215
4978,11191
5072,11106
5134,10974
5163,10794
5158,10572
5106,10322
5011,10053
4879,9769
4700,9481
4487,9202
4246,8942
3977,8706
3693,8498
3405,8333
3117,8205
2843,8120
2593,8078
2375,8078
2196,8111
2068,8177
1988,8272
1969,8385
2007,8508
2106,8635
2257,8753
2460,8862
2711,8946
3004,9009
3325,9037
3665,9032
4015,8994
4364,8919
4704,8810
5021,8672
5309,8517
5560,8338
5763,8153
5919,7964
6022,7785
6075,7624
6070,7487
6018,7379
5923,7317
5786,7294
5620,7322
5432,7402
5224,7535
5016,7714
4813,7941
4619,8205
4445,8503
4298,8829
4180,9164
4100,9509
4052,9849
4043,10171
4067,10468
4123,10728
4204,10945
4303,11111
4416,11224
4534,11281
4648,11271
4752,11210
4832,11087
4893,10917
4917,10705
4908,10449
4856,10171
4766,9868
4634,9561
4464,9254
4260,8961
4034,8687
3783,8441
3519,8234
3254,8064
2994,7935
2749,7856
2531,7823
2347,7827
2205,7875
2111,7955
2073,8059
2087,8187
2163,8323
2290,8465
2475,8598
2711,8720
2985,8824
3297,8900
3632,8946
3986,8961
4345,8938
4695,8881
5030,8796
5342,8678
5616,8541
5848,8385
6032,8224
6164,8059
6240,7903
6259,7766
6226,7653
6145,7572
6013,7530
5848,7530
5649,7582
5432,7676
5199,7823
4964,8012
4733,8248
4520,8517
4326,8815
4161,9131
4029,9457
3934,9788
3872,10104
3854,10407
3868,10671
3914,10903
3991,11087
4086,11220
4194,11290
4308,11309
4420,11262
4520,11158
4600,11002
4657,10794
4686,10544
4676,10260
4634,9953
4549,9632
4426,9306
4270,8985
4086,8678
3872,8398
3641,8153
3405,7946
3164,7780
2933,7662
2720,7591
2536,7572
2385,7591
2281,7657
2219,7752
2215,7879
2267,8026
2371,8182
2531,8342
2739,8498
2999,8640
3292,8758
3618,8853
3963,8919
4317,8952
4676,8946
5021,8909
5346,8843
5640,8744
5895,8626
6103,8489
6259,8347
6363,8205
6405,8068
6391,7950
6325,7861
6207,7794
6046,7771
5848,7790
5616,7851
5366,7960
5106,8111
4846,8305
4596,8541
4360,8805
4146,9093
3967,9401
3826,9712
3722,10020
3656,10312
3632,10586
3641,10823
3689,11016
3760,11163
3859,11257
3967,11290
4081,11267
4199,11182
4303,11045
4388,10851
4454,10609
4487,10331
4487,10020
4454,9689
4383,9349
4275,9013
4138,8683
3967,8371
3774,8092
3571,7851
3358,7648
3145,7497
2942,7398
2758,7346
2607,7341
2489,7388
2413,7472
2385,7591
2413,7742
2489,7912
2621,8092
2805,8276
3037,8451
3306,8616
3613,8758
3944,8872
4293,8957
4648,9004
4993,9018
5328,8999
5635,8946
5904,8867
6136,8763
6314,8645
6438,8517
6504,8390
6514,8272
6462,8167
6358,8087
6207,8040
6008,8026
5777,8049
5517,8120
5238,8229
4950,8385
4667,8579
4397,8805
4146,9060
3925,9334
3736,9623
3585,9916
3476,10199
3409,10464
3382,10700
3400,10903
3448,11064
3528,11172
3632,11224
3750,11224
3872,11158
3996,11040
4114,10865
4208,10638
4284,10369
4331,10067
4345,9736
4326,9391
4270,9037
4180,8692
4062,8361
3911,8054
3745,7780
3561,7553
3372,7369
3188,7232
3013,7152
2857,7123
2734,7147
2645,7223
2597,7336
2597,7483
2649,7662
2749,7856
2900,8064
3103,8272
3344,8470
3627,8654
3934,8820
4270,8952
4609,9056
4955,9122
5286,9150
5597,9146
5881,9103
6125,9037
6325,8946
6467,8838
6556,8725
6585,8607
6556,8494
6467,8398
6325,8328
6136,8286
5904,8276
5640,8305
5346,8371
5045,8479
4737,8626
4435,8810
4152,9027
3887,9268
3660,9523
3467,9793
3315,10057
3207,10312
3145,10544
3131,10752
3155,10917
3216,11040
3306,11111
3424,11130
3556,11087
3693,10993
3835,10837
3963,10634
4076,10379
4166,10090
4232,9764
4260,9420
4260,9065
4223,8711
4152,8361
4048,8040
3925,7742
3774,7483
3618,7270
3453,7109
3287,7001
3141,6949
3013,6953
2909,7005
2848,7109
2819,7251
2843,7435
2914,7638
3032,7865
3193,8097
3405,8333
3656,8555
3934,8763
4246,8942
4567,9093
4898,9212
5224,9292
5535,9330
5824,9334
6079,9306
6292,9245
6452,9160
6561,9060
6608,8946
6599,8834
6528,8725
6405,8630
6226,8560
5998,8517
5734,8503
5441,8527
5125,8593
4804,8692
4478,8829
4161,8999
3868,9198
3598,9420
3367,9656
3177,9897
3037,10133
2938,10360
2890,10563
2886,10733
2928,10865
3004,10955
3112,10993
3249,10974
3400,10898
3561,10771
3717,10591
3868,10360
3999,10086
4109,9779
4188,9443
4241,9089
4256,8734
4237,8380
4185,8040
4104,7728
3996,7449
3868,7213
3725,7029
3585,6892
3443,6816
3315,6798
3207,6831
3122,6920
3075,7057
3070,7237
3108,7449
3188,7686
3315,7941
3486,8201
3698,8456
3949,8701
4223,8928
4525,9127
4832,9287
5144,9415
5451,9505
5734,9552
5994,9561
6211,9533
6391,9476
6514,9391
6585,9287
6594,9174
6542,9056
6438,8946
6272,8848
6060,8772
5800,8720
5512,8701
5191,8716
4856,8768
4515,8853
4180,8975
3859,9131
3561,9311
3297,9509
3070,9722
2890,9934
2758,10146
2678,10341
2649,10511
2664,10653
2730,10752
2829,10809
2961,10813
3122,10766
3297,10667
3476,10511
3660,10308
3830,10057
3982,9769
4114,9453
4213,9112
4284,8763
4317,8409
4317,8064
4279,7742
4213,7449
4123,7194
4015,6987
3887,6831
3760,6727
3637,6684
3523,6703
3429,6774
3358,6901
3325,7072
3325,7283
3372,7530
3457,7799
3589,8078
3760,8366
3967,8645
4208,8904
4473,9146
4756,9353
5049,9528
5337,9660
5616,9750
5871,9798
6098,9807
6282,9774
6419,9712
6509,9623
6537,9509
6509,9391
6424,9264
6278,9146
6083,9037
5838,8946
5555,8886
5238,8853
4898,8853
4549,8890
4199,8961
3859,9065
3538,9198
3245,9358
2988,9533
2777,9722
2616,9911
2503,10090
2446,10260
2441,10402
2483,10511
2574,10586
2701,10615
2862,10591
3051,10520
3249,10398
3457,10223
3665,10005
3859,9745
4034,9448
4180,9127
4303,8791
4388,8446
4435,8106
4449,7780
4430,7478
4377,7209
4298,6987
4199,6807
4086,6689
3967,6623
3854,6618
3750,6675
3660,6783
3598,6949
3571,7156
3580,7402
3623,7676
3708,7974
3835,8281
3999,8583
4199,8881
4426,9155
4676,9405
4941,9618
5210,9793
5470,9925
5720,10015
5942,10057
6131,10053
6282,10015
6386,9939
6434,9835
6429,9712
6363,9575
6240,9438
6065,9301
5838,9179
5569,9075
5262,8994
4931,8946
4582,8933
4223,8952
3868,9004
3533,9089
3216,9202
2938,9339
2697,9495
2508,9656
2366,9821
2281,9982
2253,10123
2276,10242
2352,10327
2475,10374
2630,10379
2824,10341
3041,10251
3268,10109
3504,9925
3731,9698
3949,9434
4142,9141
4312,8824
4449,8494
4549,8163
4609,7842
4634,7539
4624,7265
4577,7024
4506,6835
4416,6693
4308,6609
4194,6585
4081,6623
3982,6712
3897,6864
3835,7062
3802,7303
3807,7582
3849,7884
3930,8205
4043,8531
4199,8853
4383,9160
4591,9443
4823,9694
5063,9906
5304,10081
5535,10204
5753,10279
5947,10308
6103,10293
6216,10237
6282,10142
6297,10020
6259,9878
6160,9727
6008,9566
5805,9409
5560,9268
5267,9146
4945,9051
4605,8980
4246,8946
3892,8946
3542,8980
3216,9046
2914,9141
2654,9259
2437,9396
2271,9538
2163,9683
2106,9821
2111,9939
2172,10038
2281,10104
2432,10138
2626,10128
2853,10071
3098,9968
3353,9821
3613,9632
3864,9405
4104,9141
4317,8853
4497,8550
4648,8234
4756,7927
4827,7629
4856,7350
4846,7109
4808,6906
4737,6750
4643,6646
4534,6604
4420,6618
4308,6689
4199,6820
4109,7005
4043,7237
4005,7511
3999,7818
4034,8144
4100,8483
4204,8824
4341,9155
4506,9467
4695,9750
4903,9996
5120,10204
5333,10364
5535,10473
5725,10530
5886,10539
6008,10506
6089,10426
6125,10308
6108,10166
6041,10001
5914,9821
5739,9641
5517,9462
5252,9297
4950,9155
4619,9037
4275,8952
3920,8900
3571,8881
3235,8900
2923,8946
2645,9023
2408,9127
2219,9245
2087,9372
2012,9500
1993,9623
2030,9727
2125,9812
2271,9868
2460,9887
2692,9864
2946,9802
3220,9698
3504,9547
3788,9358
4057,9135
4312,8881
4539,8607
4733,8319
4883,8026
5002,7742
5072,7472
5101,7227
5092,7015
5045,6850
4969,6731
4870,6670
4756,6661
4634,6717
4511,6826
4393,6991
4293,7209
4213,7472
4166,7771
4146,8097
4166,8441
4218,8791
4303,9141
4420,9472
4567,9783
4737,10062
4917,10298
5111,10487
5295,10629
5475,10719
5630,10756
5763,10738
5857,10676
5914,10567
5919,10426
5876,10256
5786,10062
5640,9859
5446,9651
5210,9448
4931,9264
4624,9098
4298,8961
3953,8857
3608,8791
3273,8758
2956,8758
2668,8796
2418,8857
2209,8946
2059,9051
1960,9169
1922,9287
1941,9401
2016,9495
2153,9575
2333,9623
2560,9637
2819,9613
3103,9547
3405,9443
3712,9301
4015,9122
4298,8909
4563,8668
4798,8413
4997,8144
5153,7879
5267,7620
5333,7379
5356,7166
5337,6996
5281,6864
5196,6783
5082,6755
4955,6788
4813,6873
4676,7020
4549,7218
4430,7464
4335,7746
4275,8068
4237,8409
4237,8763
4270,9122
4341,9467
4440,9798
4563,10100
4709,10360
4870,10582
5035,10752
5199,10870
5352,10931
5489,10936
5593,10889
5662,10794
5697,10657
5682,10483
5616,10279
5508,10062
5346,9830
5144,9594
4898,9372
4619,9164
4317,8980
3991,8829
3660,8706
3334,8626
3018,8579
2725,8569
2465,8598
2243,8654
2073,8734
1955,8838
1898,8946
1898,9060
1955,9169
2073,9264
2243,9339
2460,9386
2720,9405
3008,9386
3320,9325
3641,9231
3967,9093
4284,8928
4582,8730
4851,8512
5087,8276
5281,8031
5432,7794
5535,7563
5593,7355
5602,7176
5569,7038
5498,6944
5388,6897
5262,6906
5111,6967
4955,7090
4798,7261
4648,7487
4515,7752
4402,8059
4317,8390
4265,8739
4246,9098
4265,9453
4312,9793
4393,10109
4497,10393
4624,10638
4766,10832
4908,10974
5054,11064
5186,11092
5300,11064
5385,10983
5437,10856
5451,10686
5418,10478
5342,10242
5224,9991
5059,9736
4851,9476
4605,9231
4331,9004
4034,8805
3722,8635
3409,8508
3103,8413
2815,8361
2550,8347
2319,8371
2134,8427
2002,8508
1922,8607
1903,8720
1945,8834
2040,8946
2196,9046
2398,9127
2649,9179
2938,9202
3254,9193
3585,9146
3925,9060
4260,8942
4586,8791
4889,8612
5158,8413
5388,8201
5574,7988
5711,7776
5800,7572
5838,7398
5829,7251
5772,7142
5678,7081
5550,7067
5394,7105
5224,7198
5045,7346
4865,7539
4690,7785
4539,8064
4407,8380
4303,8720
4232,9070
4194,9424
4188,9769
4223,10095
4284,10393
4374,10657
4482,10875
4609,11040
4737,11149
4865,11201
4983,11196
5078,11130
5153,11012
5191,10851
5196,10643
5153,10402
5072,10138
4950,9859
4780,9575
4577,9297
4341,9032
4076,8791
3793,8579
3500,8404
3212,8267
2928,8167
2668,8116
2437,8106
2243,8130
2097,8187
2002,8276
1960,8380
1977,8503
2054,8626
2191,8749
2380,8857
2616,8946
2895,9013
3207,9046
3542,9051
3887,9018
4237,8952
4582,8848
4908,8716
5199,8560
5465,8385
5682,8196
5851,8007
5971,7818
6037,7648
6051,7501
6018,7383
5933,7303
5809,7270
5654,7283
5475,7346
5276,7464
5068,7629
4865,7842
4671,8097
4497,8385
4341,8706
4223,9042
4133,9386
4076,9727
4062,10057
4081,10364
4128,10638
4204,10870
4303,11059
4411,11186
4530,11262
4648,11276
4756,11229
4846,11130
4908,10974
4945,10775
4941,10534
4903,10260
4818,9972
4700,9665
4539,9363
4341,9065
4114,8787
3868,8536
3604,8314
3334,8135
3070,7998
2819,7908
2588,7856
2389,7851
2234,7889
2125,7960
2064,8059
2064,8177
2115,8309
2229,8451
2398,8583
2616,8706
2876,8815
3177,8895
3509,8946
3859,8966
4213,8952
4567,8900
4908,8820
5229,8706
5512,8569
5758,8418
5956,8253
6108,8087
6197,7927
6240,7780
6221,7657
6155,7563
6041,7511
5890,7497
5701,7530
5489,7615
5267,7746
5030,7922
4804,8149
4586,8409
4388,8697
4218,9013
4081,9339
3977,9675
3911,9996
3882,10303
3887,10586
3930,10832
3996,11030
4090,11182
4194,11271
4308,11309
4420,11281
4525,11201
4609,11059
4676,10870
4709,10634
4709,10360
4676,10062
4600,9745
4487,9420
4335,9098
4152,8791
3944,8503
3717,8248
3476,8031
3230,7851
2994,7723
2772,7638
2578,7601
2413,7610
2290,7662
2215,7752
2191,7865
2224,8007
2309,8158
2456,8314
2649,8470
2890,8612
3174,8734
3490,8838
3835,8904
4188,8942
4544,8946
4898,8914
5229,8853
5531,8758
5800,8645
6022,8508
6197,8366
6320,8220
6382,8078
6386,7955
6339,7851
6235,7780
6089,7742
5900,7746
5682,7799
5441,7893
5186,8035
4931,8220
4676,8441
4440,8701
4223,8985
4038,9292
3887,9604
3769,9916
3698,10218
3660,10501
3665,10752
3703,10960
3769,11125
3859,11238
3967,11290
4081,11286
4194,11224
4303,11101
4393,10922
4464,10700
4506,10431
4511,10133
4487,9812
4420,9472
4322,9131
4188,8801
4024,8489
3835,8201
3627,7946
3415,7733
3197,7568
2988,7449
2796,7383
2630,7364
2498,7398
2408,7468
2366,7577
2375,7719
2437,7879
2550,8054
2720,8234
2938,8413
3197,8574
3495,8720
3821,8838
4166,8928
4515,8985
4870,9009
5210,8994
5526,8946
5809,8872
6056,8772
6249,8654
6391,8527
6476,8398
6504,8276
6476,8163
6391,8078
6249,8016
6070,7993
5848,8007
5597,8064
5328,8167
5045,8309
4761,8494
4492,8711
4237,8966
4005,9235
3807,9523
3651,9821
3528,10109
3453,10383
3419,10634
3424,10851
3462,11026
3533,11153
3632,11224
3745,11238
3868,11196
3991,11097
4104,10936
4208,10728
4289,10473
4341,10180
4360,9859
4350,9519
4298,9164
4218,8820
4100,8483
3953,8167
3788,7884
3604,7643
3415,7445
3226,7294
3041,7198
2881,7152
2744,7161
2640,7218
2583,7317
2564,7454
2602,7620
2687,7809
2824,8012
3008,8215
3240,8418
3514,8602
3816,8772
4142,8909
4487,9018
4832,9089
5167,9127
5489,9127
5786,9093
6041,9032
6259,8946
6419,8843
6528,8725
6575,8607
6566,8494
6495,8394
6372,8314
6197,8262
5980,8243
5725,8262
5446,8319
5149,8418
4846,8560
4544,8734
4251,8946
3986,9183
3745,9438
3547,9708
3382,9977
3264,10237
3193,10483
3164,10700
3174,10879
3226,11021
3311,11111
3419,11144
3542,11125
3679,11045
3816,10908
3949,10719
4067,10483
4161,10199
4227,9887
4265,9547
4270,9198
4237,8838
4171,8489
4076,8158
3953,7851
3807,7582
3646,7355
3481,7176
3315,7053
3160,6982
3018,6967
2909,7005
2834,7090
2796,7223
2799,7388
2857,7587
2961,7804
3112,8035
3311,8262
3552,8489
3826,8697
4128,8881
4449,9042
4780,9164
5111,9249
5432,9301
5730,9311
5994,9287
6221,9235
6399,9155
6528,9056
6599,8946
6608,8834
6556,8725
6452,8626
6292,8550
6079,8498
5829,8475
5545,8494
5238,8546
4917,8640
4591,8768
4275,8933
3977,9127
3703,9349
3462,9580
3259,9826
3103,10067
2988,10303
2928,10516
2914,10700
2942,10846
3008,10950
3108,11002
3235,11002
3377,10950
3533,10837
3689,10671
3840,10459
3977,10194
4090,9897
4175,9571
4232,9220
4251,8862
4241,8508
4194,8163
4119,7842
4015,7553
3887,7303
3745,7100
3598,6949
3457,6850
3320,6812
3202,6831
3112,6901
3056,7024
3037,7185
3060,7388
3127,7615
3245,7865
3405,8120
3608,8375
3845,8621
4119,8853
4411,9056
4723,9226
5040,9358
5346,9457
5645,9514
5914,9533
6145,9514
6339,9462
6481,9382
6571,9287
6599,9174
6571,9060
6481,8946
6339,8848
6141,8763
5900,8706
5616,8678
5304,8687
4978,8730
4638,8810
4298,8928
3977,9075
3670,9249
3396,9448
3160,9660
2966,9878
2819,10095
2725,10298
2682,10483
2682,10634
2730,10747
2819,10818
2942,10841
3093,10809
3264,10723
3438,10586
3618,10398
3788,10161
3944,9887
4081,9575
4185,9240
4260,8890
4303,8536
4308,8187
4279,7856
4218,7553
4128,7283
4019,7057
3897,6887
3769,6764
3641,6703
3523,6703
3419,6755
3344,6864
3297,7020
3292,7218
3325,7454
3400,7714
3519,7988
3679,8272
3882,8550
4114,8815
4377,9060
4657,9273
4950,9457
5243,9598
5531,9698
5796,9760
6032,9774
6235,9755
6391,9698
6495,9618
6542,9514
6537,9396
6467,9273
6344,9150
6164,9042
5933,8946
5659,8881
5356,8838
5026,8834
4676,8862
4326,8928
3982,9027
3656,9155
3353,9311
3089,9486
2862,9675
2682,9868
2560,10057
2483,10232
2460,10383
2489,10506
2564,10591
2682,10634
2829,10629
3008,10572
3202,10468
3405,10308
3608,10100
3802,9854
3982,9566
4138,9249
4260,8914
4355,8569
4411,8229
4430,7893
4416,7582
4369,7303
4298,7062
4199,6868
4090,6727
3972,6646
3854,6623
3745,6656
3651,6746
3585,6892
3547,7086
3542,7322
3580,7587
3656,7875
3774,8177
3930,8479
4119,8777
4345,9056
4591,9311
4856,9538
5125,9722
5394,9864
5649,9963
5881,10015
6089,10029
6254,9996
6372,9934
6438,9840
6452,9722
6405,9590
6301,9453
6145,9316
5933,9193
5678,9084
5380,9004
5054,8946
4709,8923
4355,8938
3999,8985
3656,9065
3334,9174
3041,9306
2791,9462
2583,9627
2427,9793
2323,9958
2276,10109
2286,10237
2342,10331
2451,10393
2597,10412
2777,10388
2985,10312
3207,10185
3438,10015
3665,9798
3882,9542
4081,9254
4256,8942
4397,8612
4506,8281
4572,7950
4605,7638
4605,7355
4567,7105
4501,6897
4411,6735
4308,6632
4194,6590
4081,6604
3977,6679
3887,6807
3816,6991
3778,7218
3774,7483
3807,7780
3878,8092
3986,8418
4133,8739
4312,9046
4520,9339
4747,9598
4988,9821
5234,10005
5475,10142
5701,10232
5904,10275
6075,10270
6202,10227
6287,10142
6320,10034
6297,9897
6216,9750
6083,9590
5895,9438
5659,9297
5385,9169
5068,9065
4733,8994
4377,8952
4019,8946
3670,8975
3334,9037
3023,9127
2749,9240
2517,9372
2338,9519
2209,9665
2134,9807
2120,9934
2163,10043
2253,10123
2394,10166
2574,10166
2786,10123
3023,10034
3278,9897
3533,9722
3783,9500
4024,9245
4241,8961
4430,8659
4586,8342
4704,8031
4785,7723
4823,7440
4823,7180
4789,6963
4728,6793
4638,6670
4534,6609
4420,6599
4308,6656
4199,6769
4104,6935
4034,7152
3991,7412
3977,7704
3999,8026
4062,8361
4156,8701
4289,9032
4449,9349
4638,9641
4841,9901
5059,10119
5281,10293
5489,10416
5687,10492
5857,10516
5994,10492
6093,10426
6145,10322
6145,10190
6089,10029
5985,9854
5824,9679
5616,9500
5361,9339
5068,9193
4747,9070
4402,8975
4048,8919
3693,8895
3353,8904
3032,8946
2744,9018
2493,9117
2286,9235
2134,9363
2040,9490
2002,9618
2026,9731
2101,9821
2229,9887
2404,9916
2621,9906
2867,9854
3131,9760
3409,9623
3693,9443
3963,9226
4223,8980
4454,8706
4651,8418
4818,8125
4945,7832
5026,7553
5068,7298
5068,7076
5030,6892
4964,6755
4870,6675
4761,6646
4638,6679
4515,6774
4397,6920
4293,7123
4213,7374
4156,7657
4133,7979
4142,8314
4188,8664
4270,9013
4383,9349
4525,9670
4690,9953
4875,10204
5063,10412
5257,10567
5441,10671
5607,10723
5749,10723
5857,10676
5928,10582
5952,10454
5923,10289
5848,10104
5715,9906
5535,9703
5309,9505
5045,9316
4747,9150
4420,9009
4081,8895
3731,8820
3391,8777
3065,8772
2767,8805
2503,8862
2281,8946
2106,9051
1993,9164
1931,9287
1931,9401
1993,9505
2106,9585
2271,9641
2483,9665
2734,9651
3008,9598
3301,9505
3604,9367
3906,9198
4199,8990
4468,8753
4709,8498
4917,8229
5082,7960
5210,7695
5286,7445
5323,7223
5314,7034
5271,6887
5191,6788
5087,6746
4964,6755
4827,6826
4690,6953
4563,7133
4445,7364
4345,7638
4275,7946
4237,8281
4227,8635
4256,8990
4317,9339
4411,9675
4534,9986
4676,10260
4837,10497
5007,10681
5177,10818
5333,10894
5475,10917
5593,10889
5673,10813
5720,10686
5720,10525
5673,10331
5574,10119
5427,9892
5238,9665
5002,9438
4733,9231
4430,9042
4109,8881
3778,8753
3448,8664
3127,8612
2824,8593
2550,8612
2314,8664
2125,8739
1993,8838
1912,8946
1893,9060
1931,9174
2030,9273
2182,9353
2385,9405
2630,9429
2909,9420
3212,9372
3528,9283
3854,9155
4171,8994
4473,8801
4752,8583
4997,8347
5199,8106
5366,7861
5484,7624
5550,7407
5574,7213
5555,7062
5493,6949
5399,6887
5276,6878
5134,6925
4978,7024
4823,7180
4676,7393
4539,7643
4420,7935
4335,8262
4275,8607
4251,8966
4260,9320
4303,9670
4377,9996
4482,10289
4605,10549
4742,10756
4893,10917
5040,11021
5177,11072
5295,11064
5394,10997
5456,10889
5479,10728
5465,10534
5404,10312
5295,10067
5139,9812
4941,9556
4704,9311
4435,9084
4142,8876
3835,8701
3519,8564
3207,8461
2904,8398
2630,8375
2389,8390
2191,8437
2035,8512
1941,8612
1898,8720
1917,8834
1997,8946
2134,9051
2323,9135
2560,9193
2834,9226
3141,9220
3467,9183
3802,9103
4142,8990
4468,8848
4775,8672
5054,8475
5295,8262
5493,8045
5649,7827
5749,7620
5805,7430
5809,7275
5767,7152
5682,7072
5564,7043
5422,7062
5257,7138
5082,7270
4903,7449
4733,7681
4572,7950
4440,8257
4331,8593
4251,8938
4208,9292
4199,9646
4227,9977
4284,10289
4369,10563
4478,10794
4596,10979
4728,11106
4860,11177
4978,11191
5082,11144
5167,11045
5215,10898
5229,10705
5199,10478
5130,10223
5016,9949
4860,9670
4662,9391
4435,9127
4175,8876
3892,8659
3598,8475
3306,8328
3018,8220
2744,8158
2503,8135
2295,8149
2130,8201
2016,8281
1960,8380
1955,8498
2016,8621
2130,8739
2300,8853
2522,8946
2791,9018
3089,9060
3419,9070
3760,9042
4109,8980
4454,8886
4785,8758
5092,8607
5366,8432
5597,8243
5782,8049
5914,7856
5998,7676
6027,7520
6008,7393
5942,7298
5829,7246
5687,7246
5512,7294
5323,7393
5120,7544
4917,7746
4723,7988
4544,8272
4388,8583
4260,8914
4166,9259
4104,9604
4081,9944
4090,10260
4133,10544
4208,10794
4298,10993
4411,11144
4530,11238
4648,11271
4756,11243
4856,11163
4925,11026
4969,10841
4978,10615
4945,10355
4875,10067
4761,9769
4609,9467
4420,9169
4199,8886
3953,8630
3693,8404
3419,8209
3150,8064
2890,7960
2649,7898
2441,7884
2267,7908
2139,7964
2064,8054
2040,8172
2078,8300
2172,8437
2323,8569
2527,8697
2772,8805
3065,8890
3386,8946
3725,8971
4081,8961
4440,8919
4785,8843
5111,8734
5408,8602
5662,8451
5881,8286
6041,8116
6155,7950
6211,7794
6211,7662
6160,7558
6065,7492
5923,7464
5749,7487
5545,7553
5328,7672
5097,7837
4870,8049
4651,8300
4454,8583
4275,8895
4133,9220
4019,9556
3944,9887
3911,10199
3911,10492
3944,10752
4005,10969
4090,11134
4194,11248
4308,11300
4420,11295
4530,11234
4619,11111
4690,10936
4733,10714
4742,10459
4714,10166
4648,9854
4544,9533
4397,9212
4223,8900
4019,8612
3793,8347
3552,8116
3301,7927
3060,7785
2829,7690
2621,7638
2446,7634
2309,7676
2215,7752
2177,7856
2186,7988
2257,8135
2385,8290
2564,8441
2791,8588
3065,8716
3372,8820
3708,8895
4057,8938
4416,8946
4771,8923
5106,8862
5422,8777
5701,8664
5942,8531
6131,8385
6268,8238
6348,8092
6372,7960
6344,7851
6259,7766
6125,7719
5952,7709
5744,7746
5512,7827
5262,7960
5011,8130
4756,8347
4515,8598
4298,8876
4104,9179
3949,9495
3826,9812
3741,10119
3698,10412
3689,10671
3722,10898
3778,11078
3864,11210
3967,11281
4081,11300
4194,11253
4303,11149
4397,10993
4473,10785
4520,10530
4539,10242
4515,9925
4459,9594
4369,9254
4241,8923
4081,8602
3897,8305
3689,8045
3471,7818
3249,7638
3037,7506
2838,7426
2659,7393
2517,7412
2408,7468
2352,7568
2342,7695
2389,7851
2483,8020
2640,8196
2843,8371
3089,8536
3377,8687
3693,8810
4034,8904
4388,8966
4742,8994
5087,8990
5413,8946
" style="stroke:#00b000;stroke-width:16;
stroke-linejoin:round; stroke-linecap:butt;
"/>
<!-- Line: box -->
<rect x="1759" y="6481" width="4976" height="4953" rx="0" 
style="stroke:#ffffff;stroke-width:8;
stroke-linejoin:miter; stroke-linecap:butt;
"/>
</g>
</svg>
