<?xml version="1.0" encoding="iso-8859-1"?>
<!-- Generator: Adobe Illustrator 19.0.0, SVG Export Plug-In . SVG Version: 6.00 Build 0)  -->
<svg version="1.1" id="Layer_1" xmlns="http://www.w3.org/2000/svg" xmlns:xlink="http://www.w3.org/1999/xlink" x="0px" y="0px"
	 viewBox="0 0 512 512" style="enable-background:new 0 0 512 512;" xml:space="preserve">
<g transform="translate(1 1)">
	<path style="fill:#7383BF;" d="M373.29,373.29l79.448,29.131c30.897-40.607,49.434-91.807,49.434-147.421
		C502.172,118.172,391.828,7.828,255,7.828S7.828,118.172,7.828,255S118.172,502.172,255,502.172
		c55.614,0,106.814-18.538,148.303-49.434L373.29,373.29z"/>
	<g>
		<path style="fill:#434C6D;" d="M255,511C113.759,511-1,396.241-1,255S113.759-1,255-1s256,114.759,256,256
			c0,55.614-17.655,108.579-51.2,153.6c-2.648,3.531-6.179,4.414-9.71,2.648l-61.793-22.952l22.952,61.793
			c1.766,3.531,0,7.945-2.648,9.71C363.579,493.345,310.614,511,255,511z M255,16.655C123.469,16.655,16.655,123.469,16.655,255
			S123.469,493.345,255,493.345c49.434,0,97.103-15.007,137.71-43.255l-27.366-73.269c-0.883-3.531,0-7.062,1.766-9.71
			c2.648-2.648,6.179-3.531,9.71-1.766l73.269,27.366c28.248-40.607,43.255-88.276,43.255-137.71
			C493.345,123.469,386.531,16.655,255,16.655z"/>
		<path style="fill:#434C6D;" d="M255,511c-5.297,0-8.828-3.531-8.828-8.828V7.828C246.172,2.531,249.703-1,255-1
			c5.297,0,8.828,3.531,8.828,8.828v494.345C263.828,507.469,260.297,511,255,511z"/>
		<path style="fill:#434C6D;" d="M255,511c-0.883,0-2.648,0-3.531,0h-5.297l-2.648-1.766
			C166.724,446.559,122.586,353.869,122.586,255S166.724,63.441,243.524,0.766L246.172-1h5.297c0.883,0,2.648,0,3.531,0
			c5.297,0,8.828,3.531,8.828,8.828s-3.531,8.828-8.828,8.828c-0.883,0-1.766,0-2.648,0C180.848,75.8,140.241,162.31,140.241,255
			s40.607,179.2,112.11,238.345c0.883,0,1.766,0,2.648,0c5.297,0,8.828,3.531,8.828,8.828S260.297,511,255,511z"/>
		<path style="fill:#434C6D;" d="M255,149.069c-66.207,0-129.766-19.421-184.497-56.497c-3.531-3.531-4.414-8.828-1.766-12.359
			c2.648-4.414,7.945-5.297,12.359-2.648c51.2,35.31,112.11,53.848,173.903,53.848s122.703-18.538,173.903-53.848
			c4.414-2.648,9.71-1.766,12.359,2.648c2.648,4.414,1.766,9.71-2.648,12.359C384.766,129.648,321.207,149.069,255,149.069z"/>
		<path style="fill:#434C6D;" d="M70.503,428.903c-2.648,0-5.297-0.883-7.062-3.531c-2.648-3.531-1.766-9.71,1.766-12.359
			c56.497-39.724,121.821-60.91,189.793-60.91c5.297,0,8.828,3.531,8.828,8.828s-3.531,8.828-8.828,8.828
			c-64.441,0-126.234,19.421-179.2,57.379C74.034,428.021,72.269,428.903,70.503,428.903z"/>
		<path style="fill:#434C6D;" d="M378.586,263.828c-5.297,0-8.828-3.531-8.828-8.828c0-92.69-40.607-179.2-112.11-238.345
			c-0.883,0-1.766,0-2.648,0c-5.297,0-8.828-3.531-8.828-8.828S249.703-1,255-1c0.883,0,2.648,0,3.531,0h5.297l2.648,1.766
			C343.276,63.441,387.414,156.131,387.414,255C387.414,260.297,383.883,263.828,378.586,263.828z"/>
		<path style="fill:#434C6D;" d="M502.172,263.828H7.828C2.531,263.828-1,260.297-1,255c0-5.297,3.531-8.828,8.828-8.828h494.345
			c5.297,0,8.828,3.531,8.828,8.828C511,260.297,507.469,263.828,502.172,263.828z"/>
	</g>
	<path style="fill:#2E243B;" d="M499.524,487.165l-60.028-60.028l57.379-28.248L341.51,341.51l57.379,155.366l28.248-57.379
		l60.028,60.028c1.766,1.766,4.414,2.648,6.179,2.648c1.766,0,4.414-0.883,6.179-2.648
		C503.055,495.993,503.055,490.697,499.524,487.165"/>
</g>
<g>
</g>
<g>
</g>
<g>
</g>
<g>
</g>
<g>
</g>
<g>
</g>
<g>
</g>
<g>
</g>
<g>
</g>
<g>
</g>
<g>
</g>
<g>
</g>
<g>
</g>
<g>
</g>
<g>
</g>
</svg>
